Coordinates
version=1
nRows=13
nColumns=36
inDegrees=yes

Units are S.I. units (second, meters, Newtons, ...)
If the header above contains a line with 'inDegrees', this indicates whether rotational values are in degrees (yes) or radians (no).

endheader
time	pelvis_tilt	pelvis_list	pelvis_rotation	pelvis_tx	pelvis_ty	pelvis_tz	hip_flexion_r	hip_adduction_r	hip_rotation_r	knee_angle_r	knee_angle_r_beta	ankle_angle_r	subtalar_angle_r	mtp_angle_r	hip_flexion_l	hip_adduction_l	hip_rotation_l	knee_angle_l	knee_angle_l_beta	ankle_angle_l	subtalar_angle_l	mtp_angle_l	lumbar_extension	lumbar_bending	lumbar_rotation	arm_flex_r	arm_add_r	arm_rot_r	elbow_flex_r	pro_sup_r	arm_flex_l	arm_add_l	arm_rot_l	elbow_flex_l	pro_sup_l
      0.35000000	      0.30046696	     -2.84787684	      0.22177535	      0.20728496	      0.95908379	     -0.21162257	      0.08088408	      7.68831062	      8.06194213	      8.02779134	      0.14011139	      5.78859132	    -16.10026554	     -6.81327595	     23.86823952	     -4.99443592	     -1.97589696	     51.17598689	      0.89318947	     -0.44169514	    -15.23424940	     -6.81327595	     -7.63185471	      2.84793202	      3.67658346	     -0.23754881	     -7.54587513	     -5.23839381	     33.22697244	    111.32249889	      4.01264498	     -4.62280193	     -2.75581567	     24.96586277	    106.64521025
      0.36000000	      0.33170620	     -2.56816738	      0.16901258	      0.21855996	      0.95941713	     -0.21138034	     -1.01947347	      7.33969394	      7.90351211	      7.51456780	      0.13115395	      6.71014934	    -15.05425295	     -6.85238079	     24.59654997	     -4.68208324	     -1.98384891	     48.14270356	      0.84024869	     -0.72408177	    -15.35812205	     -6.85238079	     -7.87540612	      2.12546317	      3.79499629	      0.56290655	     -7.90452487	     -3.37435898	     33.35380289	    111.24748002	      3.82450213	     -4.60368017	     -3.91169222	     25.22537938	    106.44027658
      0.37000000	      0.44876407	     -2.36688326	      0.06678846	      0.22988271	      0.95950842	     -0.21094048	     -2.23591493	      7.11456205	      8.02599921	      6.97510123	      0.12173848	      7.24318497	    -14.75158089	     -6.86943116	     25.08533121	     -4.51298611	     -2.03143263	     44.88880141	      0.78345738	     -0.89267655	    -15.05074040	     -6.86943116	     -8.21508347	      1.47562980	      4.18658152	      1.15105664	     -8.12282234	     -2.62569293	     33.76912718	    111.21943482	      3.84904770	     -4.67986998	     -4.45651554	     25.24150513	    106.34143031
      0.38000000	      0.46352550	     -2.16630957	     -0.03339316	      0.24124127	      0.95912729	     -0.21051633	     -3.29947545	      6.88705459	      8.14088225	      6.50504991	      0.11353454	      7.75972885	    -14.54055753	     -6.87970909	     25.59116544	     -4.35804379	     -2.11869190	     41.51516651	      0.72457635	     -1.18212252	    -14.58444066	     -6.87970909	     -8.42698858	      0.81358158	      4.53175330	      1.71877815	     -8.26836455	     -1.98352740	     34.21283268	    111.23526002	      3.85832526	     -4.74619763	     -4.87254228	     25.21178019	    106.25027768
      0.39000000	      0.61318988	     -2.04545561	     -0.16848911	      0.25270714	      0.95861898	     -0.21003309	     -4.52564893	      6.74390355	      8.26223675	      6.02683733	      0.10518815	      8.35633700	    -14.18208103	     -6.89122529	     25.80288354	     -4.31041506	     -2.21706613	     37.96592256	      0.66263035	     -1.57019477	    -14.06048618	     -6.89122529	     -8.79732539	      0.23784816	      4.86806047	      2.35113390	     -8.49621355	     -1.17963793	     34.60477966	    111.24833543	      3.85176568	     -4.81191059	     -5.38851194	     25.21988887	    106.12911634
      0.40000000	      0.63535442	     -1.96024188	     -0.31727915	      0.26417531	      0.95761863	     -0.20952744	     -5.57213635	      6.64212148	      8.42321986	      5.63472093	      0.09834443	      8.90167423	    -13.92800712	     -6.89874773	     26.07017672	     -4.29378090	     -2.25307117	     34.33825218	      0.59931556	     -1.95525644	    -13.26666685	     -6.89874773	     -9.00572145	     -0.30923815	      5.19601192	      2.98220284	     -8.64375912	     -0.56006594	     34.97995697	    111.27082432	      3.81548436	     -4.88304636	     -5.77818959	     25.22871362	    106.03427842
      0.41000000	      0.95071004	     -1.89032414	     -0.49655139	      0.27590434	      0.95675435	     -0.20910188	     -6.94032489	      6.50245333	      8.09307413	      5.27224988	      0.09201812	     10.21659572	    -12.45542490	     -6.94634028	     25.85339674	     -4.32770790	     -2.43155997	     30.57876027	      0.53370005	     -2.38660259	    -12.50506027	     -6.94634028	     -9.52840807	     -0.85691575	      5.05290950	      4.15440446	     -9.03861083	      1.87374927	     34.71650111	    111.02361811	      3.39033764	     -4.86579870	     -7.56822165	     25.91545443	    105.68300110
      0.42000000	      0.85569812	     -2.01893013	     -0.70154415	      0.28755439	      0.95496934	     -0.20855050	     -7.81757979	      6.62873703	      8.30442208	      4.98981780	      0.08708875	     10.60657921	    -12.42010954	     -6.95105240	     26.10748445	     -4.58339103	     -2.42538225	     26.96950519	      0.47070666	     -2.57922634	    -11.49571161	     -6.95105240	     -9.56306045	     -1.17134690	      5.41497865	      4.71279758	     -9.15356231	      2.07764840	     35.06137011	    111.02342237	      3.27950035	     -4.95838251	     -7.74167715	     25.88574411	    105.65757479
      0.43000000	      1.30247845	     -1.85589122	     -0.96126414	      0.29950750	      0.95390514	     -0.20798163	     -9.45391001	      6.37241019	      8.44080643	      4.40114665	      0.07681450	     11.28348660	    -12.10030226	     -6.96028110	     25.48517054	     -4.57617227	     -2.77360957	     23.06656680	      0.40258754	     -2.82252028	    -10.02060164	     -6.96028110	    -10.24514605	     -1.87038103	      5.81794593	      5.38228966	     -9.27962248	      2.69911355	     35.38177901	    111.03140306	      3.31607301	     -5.08141817	     -8.12598530	     25.96810962	    105.60092695
      0.44000000	      1.51918612	     -1.90109328	     -1.22241496	      0.31144824	      0.95221861	     -0.20756766	    -10.67838958	      6.32429677	      8.19796257	      4.14170497	      0.07228639	     12.43962291	    -10.67099167	     -7.00338076	     25.13420398	     -4.76874684	     -2.90099100	     19.38248634	      0.33828820	     -2.54041006	     -8.38952690	     -7.00338076	    -10.65119223	     -2.32401951	      5.73963143	      6.47275488	     -9.51529033	      4.55839158	     35.17527148	    110.82501137	      2.85836660	     -5.09449515	     -9.57178257	     26.60066590	    105.50150898
      0.45000000	      1.61209606	     -1.95104152	     -1.52022780	      0.32340596	      0.95020831	     -0.20715007	    -11.80977967	      6.28673456	      8.39194320	      3.79522812	      0.06623923	     12.93989672	    -10.54428168	     -7.01082474	     24.82347880	     -4.94323414	     -2.78638048	     15.72555615	      0.27446273	     -2.55432491	     -7.24594299	     -7.01082474	    -10.90758269	     -2.77722157	      6.12911573	      7.04631696	     -9.59279297	      4.86895516	     35.44476829	    110.81330289	      2.78034631	     -5.18852310	     -9.81082970	     26.63565304	    105.49520491
      0.46000000	      1.84018745	     -1.97900496	     -1.83501467	      0.33551870	      0.94826852	     -0.20682342	    -13.05489242	      6.18222240	      8.23061515	      3.53170098	      0.06163981	     13.88031672	     -9.38612222	     -7.04975738	     24.28445593	     -5.11544981	     -2.70365468	     12.20600312	      0.21303494	     -2.32811881	     -6.10171530	     -7.04975738	    -11.32893878	     -3.27238665	      6.14740793	      8.00676865	     -9.73143246	      6.23505434	     35.37891251	    110.64701181	      2.40912902	     -5.23273099	    -10.98335353	     27.09188119	    105.52175492
      0.47000000	      1.77961350	     -2.09480576	     -2.18539976	      0.34757702	      0.94579090	     -0.20648025	    -13.94408748	      6.18794627	      8.51686853	      3.36702071	      0.05876560	     14.31927044	     -9.28604284	     -7.05487603	     24.05642093	     -5.39748264	     -2.28779211	      8.95933284	      0.15636986	     -2.04280692	     -5.22007770	     -7.05487603	    -11.41039562	     -3.66937571	      6.51955997	      8.54973736	     -9.78117170	      6.44512516	     35.60644151	    110.64770010	      2.30425659	     -5.35006565	    -11.17918264	     27.06633093	    105.51335542
